HIERARCHY
ROOT Hips
{
	OFFSET 0.00000 0.00000 0.00000
	CHANNELS 6 Xposition Yposition Zposition Zrotation Yrotation Xrotation 
	JOINT LHipJoint
	{
		OFFSET 0 0 0
		CHANNELS 3 Zrotation Yrotation Xrotation
		JOINT LeftHip
		{
			OFFSET 1.38280 -1.96574 0.54427
			CHANNELS 3 Zrotation Yrotation Xrotation
			JOINT LeftKnee
			{
				OFFSET 2.72096 -7.47578 0.00000
				CHANNELS 3 Zrotation Yrotation Xrotation
				JOINT LeftAnkle
				{
					OFFSET 2.73041 -7.50176 0.00000
					CHANNELS 3 Zrotation Yrotation Xrotation
					JOINT LeftToe
					{
						OFFSET 0.16150 -0.44371 2.18031
						CHANNELS 3 Zrotation Yrotation Xrotation
						End Site
						{
							OFFSET 0.00000 -0.00000 1.12127
						}
					}
				}
			}
		}
	}
	JOINT RHipJoint
	{
		OFFSET 0 0 0
		CHANNELS 3 Zrotation Yrotation Xrotation
		JOINT RightHip
		{
			OFFSET -1.57224 -1.96575 0.54427
			CHANNELS 3 Zrotation Yrotation Xrotation
			JOINT RightKnee
			{
				OFFSET -2.95935 -8.13076 0.00000
				CHANNELS 3 Zrotation Yrotation Xrotation
				JOINT RightAnkle
				{
					OFFSET -2.52345 -6.93311 0.00000
					CHANNELS 3 Zrotation Yrotation Xrotation
					JOINT RightToe
					{
						OFFSET -0.04475 -0.10171 1.86688
						CHANNELS 3 Zrotation Yrotation Xrotation
						End Site
						{
							OFFSET -0.00000 -0.00000 0.95157
						}
					}
				}
			}
		}
	}
	JOINT lowerback
	{
		OFFSET 0 0 0
		CHANNELS 3 Zrotation Yrotation Xrotation
		JOINT Chest
		{
			OFFSET 0.00669 2.07367 0.09104
			CHANNELS 3 Zrotation Yrotation Xrotation
			JOINT Chest2
			{
				OFFSET -0.00664 2.06198 -0.04732
				CHANNELS 3 Zrotation Yrotation Xrotation
				JOINT lowerneck
				{
					OFFSET 0 0 0
					CHANNELS 3 Zrotation Yrotation Xrotation
					JOINT Neck
					{
						OFFSET -0.00021 1.49948 0.16345
						CHANNELS 3 Zrotation Yrotation Xrotation
						JOINT Head
						{
							OFFSET 0.06080 1.50567 -0.26702
							CHANNELS 3 Zrotation Yrotation Xrotation
							End Site
							{
								OFFSET 0.01726 1.56470 -0.11854
							}
						}
					}
				}
				JOINT LeftCollar
				{
					OFFSET 0 0 0
					CHANNELS 3 Zrotation Yrotation Xrotation
					JOINT LeftShoulder
					{
						OFFSET 3.14993 0.82932 -0.22488
CHANNELS 3 Zrotation Xrotation Yrotation
						JOINT LeftElbow
						{
OFFSET 0 -5.682360 -0.000000
CHANNELS 3 Zrotation Xrotation Yrotation
							JOINT LeftWrist
							{
OFFSET 0 -3.171120 0.000000
CHANNELS 3 Zrotation Xrotation Yrotation
								JOINT lhand
								{
									OFFSET 0 0 0
CHANNELS 3 Zrotation Xrotation Yrotation
									JOINT LFingers
									{
OFFSET 0 -0.632690 0.000000
CHANNELS 3 Zrotation Xrotation Yrotation
										End Site
										{
OFFSET 0 -0.510090 0.000000
										}
									}
								}
								JOINT LThumb
								{
OFFSET 0 0.000000 0.000000
CHANNELS 3 Zrotation Xrotation Yrotation
									End Site
									{
OFFSET 0 -0.517880 0.517880
									}
								}
							}
						}
					}
				}
				JOINT RightCollar
				{
					OFFSET 0 0 0
					CHANNELS 3 Zrotation Yrotation Xrotation
					JOINT RightShoulder
					{
						OFFSET -3.10571 0.91279 -0.33334
CHANNELS 3 Zrotation Xrotation Yrotation
						JOINT RightElbow
						{
OFFSET 0 -5.871200 -0.000000
CHANNELS 3 Zrotation Xrotation Yrotation
							JOINT RightWrist
							{
OFFSET 0 -3.375890 0.000000
CHANNELS 3 Zrotation Xrotation Yrotation
								JOINT rhand
								{
									OFFSET 0 0 0
CHANNELS 3 Zrotation Xrotation Yrotation
									JOINT RFingers
									{
OFFSET 0 -0.603260 0.000000
CHANNELS 3 Zrotation Xrotation Yrotation
										End Site
										{
OFFSET 0 -0.486360 0.000000
										}
									}
								}
								JOINT RThumb
								{
OFFSET 0 0.000000 0.000000
CHANNELS 3 Zrotation Xrotation Yrotation
									End Site
									{
OFFSET 0 -0.493790 0.493790
									}
								}
							}
						}
					}
				}
			}
		}
	}
}
MOTION
Frames: 5
Frame Time: 0.008333333333333333
16.505823 13.485754 0.867671 -539.927209 -80.543831 183.858885 0.000000 0.000000 0.000000 -9.856645 1.433705 -79.033938 12.343150 18.531971 67.072423 0.040765 3.342447 3.998341 0.214612 -2.982477 -8.229925 0.000000 0.000000 0.000000 0.667755 15.805937 -93.949025 -23.116443 -19.765510 99.146154 -0.171481 -9.144931 9.165021 -0.150134 -2.496223 6.879255 1.349545 0.019423 14.599729 2.791339 -0.765386 11.243582 2.235154 -0.781619 3.779400 -5.907521 -4.916703 -18.812628 11.267507 -8.323909 21.567406 3.772614 -3.081348 10.821264 0.000000 0.000000 0.000000 45.470738 -50.581472 -34.609715 89.350727 -59.989397 59.437744 22.360956 -37.532402 -52.302387 0.000000 0.000000 0.000000 -7.125000 0.000000 0.000000 -59.809726 79.659841 50.372984 0.000000 0.000000 0.000000 -13.725938 -54.955307 43.806718 -85.981906 -59.938813 -56.520993 -12.588575 -19.744831 -6.513302 0.000000 0.000000 0.000000 7.125000 0.000000 0.000000 10.408985 23.328753 5.524571
16.509363 13.479400 0.853874 -539.973856 -81.000375 183.882115 0.000000 0.000000 0.000000 -9.809788 0.919091 -78.969191 12.318980 18.522257 66.996235 0.040466 3.347983 3.991050 0.299795 -3.520436 -9.731132 0.000000 0.000000 0.000000 0.691672 15.405014 -93.947590 -23.154740 -19.759723 99.259420 -0.172903 -9.004496 9.121093 -0.131427 -2.334320 6.430610 1.530510 0.082538 14.980073 2.825363 -0.624530 11.037040 2.160200 -0.693151 3.348812 -5.901703 -5.118730 -18.467767 11.200337 -8.767359 22.512595 3.698612 -3.290512 11.145074 0.000000 0.000000 0.000000 44.208970 -49.052286 -30.573889 116.779505 -57.106952 82.966316 10.692290 -89.810058 -57.118801 0.000000 0.000000 0.000000 -7.125000 0.000000 0.000000 -83.417161 75.880725 68.751027 0.000000 0.000000 0.000000 -14.774970 -54.675386 42.385516 -88.958553 -59.995886 -59.098115 -12.957403 -19.784423 -6.385366 0.000000 0.000000 0.000000 7.125000 0.000000 0.000000 10.146947 23.447451 5.352964
16.531648 13.476633 0.854838 -540.022416 -81.048214 183.719558 0.000000 0.000000 0.000000 -10.074171 1.227017 -78.824278 12.257024 18.497248 66.801281 0.038957 3.588602 4.031670 0.163267 -2.603525 -7.176822 0.000000 0.000000 0.000000 0.632690 15.514457 -93.807969 -23.146124 -19.761038 99.233972 -0.162557 -9.189943 9.057518 -0.138424 -2.397766 6.606359 1.589017 0.027427 14.878576 2.785920 -0.720611 11.230389 2.094209 -0.745001 3.615362 -5.623363 -4.964195 -18.516340 10.769635 -8.533048 22.717845 3.533677 -3.203443 11.169553 0.000000 0.000000 0.000000 44.089047 -48.673846 -30.970847 122.473217 -55.613911 87.708447 2.290172 -89.201785 -57.216626 0.000000 0.000000 0.000000 -7.125000 0.000000 0.000000 -84.715809 72.939548 66.688002 0.000000 0.000000 0.000000 -14.147902 -55.292998 42.994497 -90.667864 -59.998290 -60.578355 -12.878926 -20.123496 -7.017709 0.000000 0.000000 0.000000 7.125000 0.000000 0.000000 10.167783 22.811739 5.515119
16.549166 13.466973 0.861980 -540.057259 -80.872718 183.666130 0.000000 0.000000 0.000000 -10.154218 1.508154 -78.899759 12.281614 18.507127 66.878682 0.040953 3.573646 4.091917 0.155353 -2.539899 -7.000291 0.000000 0.000000 0.000000 0.452241 15.857280 -93.789066 -23.121313 -19.764813 99.160633 -0.154453 -9.342400 9.014965 -0.159879 -2.576157 7.100893 1.476665 0.052654 14.818367 2.758699 -0.695552 11.202056 2.125109 -0.736152 3.615113 -5.695135 -4.963268 -18.664978 10.787733 -8.462456 22.453030 3.557175 -3.172621 11.097206 0.000000 0.000000 0.000000 45.410159 -49.482067 -36.814396 103.831611 -59.262758 71.948735 1.167865 -13.083720 -43.459160 0.000000 0.000000 0.000000 -7.125000 0.000000 0.000000 -49.523088 67.066249 29.106756 0.000000 0.000000 0.000000 -13.954375 -55.154833 43.549084 -88.879663 -59.995234 -59.029779 -12.103952 -20.132768 -7.327750 0.000000 0.000000 0.000000 7.125000 0.000000 0.000000 10.712769 22.524037 5.892618
16.553397 13.459197 0.873994 -538.712978 -80.658989 182.197372 0.000000 0.000000 0.000000 -9.786707 1.605944 -78.813535 12.330096 18.526751 67.031437 0.033688 3.675671 3.889038 0.115124 -2.186615 -6.021816 0.000000 0.000000 0.000000 0.625705 16.146239 -93.640549 -23.110414 -19.766477 99.128320 -0.159905 -8.877848 8.871297 -0.112301 -2.160572 5.949672 1.521717 -0.032533 14.882550 2.838536 -0.823345 11.288537 2.198707 -0.808985 3.681718 -5.704104 -4.837869 -18.985056 10.599173 -8.123646 21.940530 3.530824 -3.033279 10.925962 0.000000 0.000000 0.000000 44.947856 -48.278849 -38.023397 99.229300 -59.671956 67.983806 19.023618 -18.472591 -52.640758 0.000000 0.000000 0.000000 -7.125000 0.000000 0.000000 -62.637376 78.377056 51.689370 0.000000 0.000000 0.000000 -14.034888 -54.952658 44.132948 -89.007319 -59.996220 -59.140316 -11.371899 -18.797342 -7.005320 0.000000 0.000000 0.000000 7.125000 0.000000 0.000000 11.263768 22.868797 6.116395
